{"title":"Women.Without.Men.2009.DVDRip.XviD","uid":6658989,"size":772727882,"categoryP":"video","categoryS":"movies","magnet":"?xt=urn:btih:0b9fe02ce0ca9171a8a678e48905a18e30162316&amp;dn=Women.Without.Men.2009.DVDRip.XviD&amp;tr=udp%3A%2F%2Ftracker.openbittorrent.com%3A80&amp;tr=udp%3A%2F%2Fopen.demonii.com%3A1337&amp;tr=udp%3A%2F%2Ftracker.coppersurfer.tk%3A6969&amp;tr=udp%3A%2F%2Fexodus.desync.com%3A6969","seeders":9,"leechers":0,"uploader":"FatFreddy255","files":1,"time":1315437665,"description":"&quot;Zanan-e bedun-e mardan&quot;\n&quot;Women Without Men&quot;\n\nAgainst the tumultuous backdrop of Iran's 1953 CIA-backed coup d'etat, the destinies of four women converge in a beautiful orchard garden, where they find independence, solace and companionship.\n\nDirectors:\nShirin Neshat, Shoja Azari\nWriters:\nShoja Azari, Shirin Neshat\nStars:\nShabnam Toloui, Pegah Ferydoni and Arita Shahrzad \nCountry:\nGermany | Austria | France | Italy | Ukraine | Morocco\nLanguage:\nPersian | English \n\n\nComplete name                            : Women.Without.Men.2009.DVDRip.XviD.avi\nFormat                                   : AVI\nFormat/Info                              : Audio Video Interleave\nFile size                                : 737 MiB\nDuration                                 : 1h 40mn\nOverall bit rate                         : 1 029 Kbps\nMovie name                               : Women without Men (2010)\nWriting application                      : Lavf52.39.0\nWriting library                          : VirtualDub build 28346/release\n\nVideo\nID                                       : 0\nFormat                                   : MPEG-4 Visual\nFormat settings, BVOP                    : Yes\nFormat settings, QPel                    : No\nFormat settings, GMC                     : No warppoints\nFormat settings, Matrix                  : Default (H.263)\nCodec ID                                 : DX50\nCodec ID/Hint                            : DivX 5\nDuration                                 : 1h 40mn\nBit rate                                 : 892 Kbps\nWidth                                    : 720 pixels\nHeight                                   : 480 pixels\nDisplay aspect ratio                     : 3:2\nFrame rate                               : 24.000 fps\nStandard                                 : NTSC\nColor space                              : YUV\nChroma subsampling                       : 4:2:0\nBit depth                                : 8 bits\nScan type                                : Progressive\nCompression mode                         : Lossy\nBits/(Pixel*Frame)                       : 0.108\nStream size                              : 639 MiB (87%)\nWriting library                          : DivX 6.8.5 (UTC 2009-08-20)\n\nAudio\nID                                       : 1\nFormat                                   : MPEG Audio\nFormat version                           : Version 1\nFormat profile                           : Layer 3\nMode                                     : Joint stereo\nMode extension                           : MS Stereo\nCodec ID                                 : 55\nCodec ID/Hint                            : MP3\nDuration                                 : 1h 40mn\nBit rate mode                            : Constant\nBit rate                                 : 128 Kbps\nChannel(s)                               : 2 channels\nSampling rate                            : 44.1 KHz\nCompression mode                         : Lossy\nStream size                              : 91.6 MiB (12%)\nAlignment                                : Split accross interleaves\nInterleave, duration                     : 42 ms (1.00 video frame)\nInterleave, preload duration             : 500 ms\nWriting library                          : LAME3.98.2\n\n","torrent":{"xt":"urn:btih:0b9fe02ce0ca9171a8a678e48905a18e30162316","amp;dn":"Women.Without.Men.2009.DVDRip.XviD","amp;tr":["udp%3A%2F%2Ftracker.openbittorrent.com%3A80","udp%3A%2F%2Fopen.demonii.com%3A1337","udp%3A%2F%2Ftracker.coppersurfer.tk%3A6969","udp%3A%2F%2Fexodus.desync.com%3A6969"],"infoHash":"0b9fe02ce0ca9171a8a678e48905a18e30162316","infoHashBuffer":{"type":"Buffer","data":[11,159,224,44,224,202,145,113,168,166,120,228,137,5,161,142,48,22,35,22]},"announce":[],"urlList":[]}}